G04 Layer: TopSilkLayer*
G04 EasyEDA v6.4.5, 2020-09-15T20:10:03+02:00*
G04 89610be28746463fae7f6a063ad526cf,a876551235204336a4c6776009a4e884,10*
G04 Gerber Generator version 0.2*
G04 Scale: 100 percent, Rotated: No, Reflected: No *
G04 Dimensions in inches *
G04 leading zeros omitted , absolute positions ,2 integer and 4 decimal *
%FSLAX24Y24*%
%MOIN*%
G90*
G70D02*

%ADD10C,0.010000*%
%ADD11C,0.006000*%
%ADD12C,0.008000*%
%ADD23C,0.004724*%
%ADD24C,0.009000*%
%ADD25C,0.004000*%
%ADD26C,0.004500*%

%LPD*%
G54D23*
G01X8385Y10745D02*
G01X8661Y10745D01*
G01X8661Y14091D01*
G01X8365Y14091D01*
G01X8385Y10745D01*
G01X8385Y9446D02*
G01X8385Y10154D01*
G01X8680Y10154D01*
G01X8680Y9446D01*
G01X8385Y9446D01*
G01X10727Y9446D01*
G01X10727Y15371D01*
G01X8365Y15371D01*
G01X8385Y9446D01*
G01X9271Y9446D02*
G01X9271Y9741D01*
G01X10432Y9741D01*
G01X10432Y12910D01*
G01X10432Y15075D01*
G01X9350Y15075D01*
G01X9350Y15371D01*
G01X8365Y14682D02*
G01X8661Y14682D01*
G01X8661Y15371D01*
G01X8365Y15371D01*
G01X8365Y14682D01*
G01X11685Y10745D02*
G01X11961Y10745D01*
G01X11961Y14091D01*
G01X11665Y14091D01*
G01X11685Y10745D01*
G01X11685Y9446D02*
G01X11685Y10154D01*
G01X11980Y10154D01*
G01X11980Y9446D01*
G01X11685Y9446D01*
G01X14027Y9446D01*
G01X14027Y15371D01*
G01X11665Y15371D01*
G01X11685Y9446D01*
G01X12571Y9446D02*
G01X12571Y9741D01*
G01X13732Y9741D01*
G01X13732Y12910D01*
G01X13732Y15075D01*
G01X12650Y15075D01*
G01X12650Y15371D01*
G01X11665Y14682D02*
G01X11961Y14682D01*
G01X11961Y15371D01*
G01X11665Y15371D01*
G01X11665Y14682D01*
G01X14885Y10745D02*
G01X15161Y10745D01*
G01X15161Y14091D01*
G01X14865Y14091D01*
G01X14885Y10745D01*
G01X14885Y9446D02*
G01X14885Y10154D01*
G01X15180Y10154D01*
G01X15180Y9446D01*
G01X14885Y9446D01*
G01X17227Y9446D01*
G01X17227Y15371D01*
G01X14865Y15371D01*
G01X14885Y9446D01*
G01X15771Y9446D02*
G01X15771Y9741D01*
G01X16932Y9741D01*
G01X16932Y12910D01*
G01X16932Y15075D01*
G01X15850Y15075D01*
G01X15850Y15371D01*
G01X14865Y14682D02*
G01X15161Y14682D01*
G01X15161Y15371D01*
G01X14865Y15371D01*
G01X14865Y14682D01*
G01X1484Y11669D02*
G01X1484Y12378D01*
G01X1780Y12378D01*
G01X1780Y11669D01*
G01X1484Y11669D01*
G01X3828Y11669D01*
G01X3828Y16630D01*
G01X1484Y16630D01*
G01X1484Y11669D01*
G01X1484Y12968D02*
G01X1780Y12968D01*
G01X1780Y15330D01*
G01X1484Y15330D01*
G01X1484Y12968D01*
G01X1484Y15921D02*
G01X1780Y15921D01*
G01X1780Y16630D01*
G01X1484Y16630D01*
G01X1484Y15921D01*
G01X2371Y11669D02*
G01X2371Y11964D01*
G01X3532Y11964D01*
G01X3532Y14149D01*
G01X3532Y16334D01*
G01X2371Y16334D01*
G01X2371Y16630D01*
G01X1367Y12535D02*
G01X1367Y11551D01*
G01X2351Y11551D01*
G01X4985Y11669D02*
G01X4985Y12378D01*
G01X5281Y12378D01*
G01X5281Y11669D01*
G01X4985Y11669D01*
G01X7327Y11669D01*
G01X7327Y16630D01*
G01X4985Y16630D01*
G01X4985Y11669D01*
G01X4985Y12968D02*
G01X5281Y12968D01*
G01X5281Y15330D01*
G01X4985Y15330D01*
G01X4985Y12968D01*
G01X4985Y15921D02*
G01X5281Y15921D01*
G01X5281Y16630D01*
G01X4985Y16630D01*
G01X4985Y15921D01*
G01X5871Y11669D02*
G01X5871Y11964D01*
G01X7032Y11964D01*
G01X7032Y14149D01*
G01X7032Y16334D01*
G01X5871Y16334D01*
G01X5871Y16630D01*
G01X4867Y12535D02*
G01X4867Y11551D01*
G01X5852Y11551D01*
G54D10*
G01X9500Y27500D02*
G01X9500Y27900D01*
G01X11100Y27900D01*
G01X11100Y18000D01*
G01X1900Y18000D01*
G01X1900Y27900D01*
G01X3500Y27000D02*
G01X3500Y28400D01*
G01X9500Y28400D01*
G01X9500Y19000D01*
G01X3500Y19000D01*
G01X3500Y27000D01*
G01X3500Y27900D02*
G01X1900Y27900D01*
G54D12*
G01X3700Y21600D02*
G01X4300Y21600D01*
G01X3700Y20600D02*
G01X4400Y20600D01*
G01X8300Y21600D02*
G01X9200Y21600D01*
G54D10*
G01X17010Y16280D02*
G01X17010Y22280D01*
G01X12010Y22280D01*
G01X12010Y16280D01*
G01X17010Y16280D01*
G01X17453Y8893D02*
G01X17453Y1806D01*
G01X446Y1806D01*
G01X446Y8893D01*
G01X17453Y8893D01*
G54D24*
G01X16010Y23525D02*
G01X16010Y25575D01*
G01X17089Y25575D01*
G01X17089Y23525D01*
G01X16010Y23525D01*
G01X16010Y25325D02*
G01X17089Y25325D01*
G54D12*
G01X12322Y28063D02*
G01X12305Y28098D01*
G01X12268Y28134D01*
G01X12231Y28153D01*
G01X12159Y28153D01*
G01X12122Y28134D01*
G01X12085Y28098D01*
G01X12068Y28063D01*
G01X12050Y28007D01*
G01X12050Y27917D01*
G01X12068Y27863D01*
G01X12085Y27826D01*
G01X12122Y27790D01*
G01X12159Y27771D01*
G01X12231Y27771D01*
G01X12268Y27790D01*
G01X12305Y27826D01*
G01X12322Y27863D01*
G01X12322Y27917D01*
G01X12231Y27917D02*
G01X12322Y27917D01*
G01X12443Y28153D02*
G01X12443Y27771D01*
G01X12443Y28153D02*
G01X12697Y27771D01*
G01X12697Y28153D02*
G01X12697Y27771D01*
G01X12817Y28153D02*
G01X12817Y27771D01*
G01X12817Y28153D02*
G01X12944Y28153D01*
G01X12998Y28134D01*
G01X13035Y28098D01*
G01X13053Y28063D01*
G01X13072Y28007D01*
G01X13072Y27917D01*
G01X13053Y27863D01*
G01X13035Y27826D01*
G01X12998Y27790D01*
G01X12944Y27771D01*
G01X12817Y27771D01*
G01X14050Y28153D02*
G01X14194Y27771D01*
G01X14340Y28153D02*
G01X14194Y27771D01*
G01X14734Y28063D02*
G01X14714Y28098D01*
G01X14678Y28134D01*
G01X14643Y28153D01*
G01X14569Y28153D01*
G01X14534Y28134D01*
G01X14497Y28098D01*
G01X14478Y28063D01*
G01X14460Y28007D01*
G01X14460Y27917D01*
G01X14478Y27863D01*
G01X14497Y27826D01*
G01X14534Y27790D01*
G01X14569Y27771D01*
G01X14643Y27771D01*
G01X14678Y27790D01*
G01X14714Y27826D01*
G01X14734Y27863D01*
G01X15126Y28063D02*
G01X15107Y28098D01*
G01X15072Y28134D01*
G01X15035Y28153D01*
G01X14963Y28153D01*
G01X14926Y28134D01*
G01X14889Y28098D01*
G01X14872Y28063D01*
G01X14853Y28007D01*
G01X14853Y27917D01*
G01X14872Y27863D01*
G01X14889Y27826D01*
G01X14926Y27790D01*
G01X14963Y27771D01*
G01X15035Y27771D01*
G01X15072Y27790D01*
G01X15107Y27826D01*
G01X15126Y27863D01*
G01X886Y10555D02*
G01X840Y10532D01*
G01X794Y10486D01*
G01X773Y10440D01*
G01X750Y10373D01*
G01X750Y10259D01*
G01X773Y10190D01*
G01X794Y10144D01*
G01X840Y10100D01*
G01X886Y10076D01*
G01X976Y10076D01*
G01X1023Y10100D01*
G01X1067Y10144D01*
G01X1090Y10190D01*
G01X1113Y10259D01*
G01X1113Y10373D01*
G01X1090Y10440D01*
G01X1067Y10486D01*
G01X1023Y10532D01*
G01X976Y10555D01*
G01X886Y10555D01*
G01X1536Y10326D02*
G01X1490Y10373D01*
G01X1444Y10394D01*
G01X1376Y10394D01*
G01X1332Y10373D01*
G01X1286Y10326D01*
G01X1263Y10259D01*
G01X1263Y10213D01*
G01X1286Y10144D01*
G01X1332Y10100D01*
G01X1376Y10076D01*
G01X1444Y10076D01*
G01X1490Y10100D01*
G01X1536Y10144D01*
G01X1686Y10259D02*
G01X1959Y10259D01*
G01X1959Y10305D01*
G01X1936Y10350D01*
G01X1913Y10373D01*
G01X1867Y10394D01*
G01X1800Y10394D01*
G01X1755Y10373D01*
G01X1709Y10326D01*
G01X1686Y10259D01*
G01X1686Y10213D01*
G01X1709Y10144D01*
G01X1755Y10100D01*
G01X1800Y10076D01*
G01X1867Y10076D01*
G01X1913Y10100D01*
G01X1959Y10144D01*
G01X2382Y10394D02*
G01X2382Y10076D01*
G01X2382Y10326D02*
G01X2336Y10373D01*
G01X2290Y10394D01*
G01X2223Y10394D01*
G01X2176Y10373D01*
G01X2132Y10326D01*
G01X2109Y10259D01*
G01X2109Y10213D01*
G01X2132Y10144D01*
G01X2176Y10100D01*
G01X2223Y10076D01*
G01X2290Y10076D01*
G01X2336Y10100D01*
G01X2382Y10144D01*
G01X2532Y10394D02*
G01X2532Y10076D01*
G01X2532Y10305D02*
G01X2600Y10373D01*
G01X2644Y10394D01*
G01X2713Y10394D01*
G01X2759Y10373D01*
G01X2782Y10305D01*
G01X2782Y10076D01*
G01X2932Y10555D02*
G01X2932Y10213D01*
G01X2955Y10144D01*
G01X3000Y10100D01*
G01X3067Y10076D01*
G01X3113Y10076D01*
G01X3182Y10100D01*
G01X3226Y10144D01*
G01X3250Y10213D01*
G01X3250Y10555D01*
G01X3400Y10555D02*
G01X3400Y10076D01*
G01X3400Y10555D02*
G01X3605Y10555D01*
G01X3673Y10532D01*
G01X3694Y10509D01*
G01X3717Y10463D01*
G01X3717Y10394D01*
G01X3694Y10350D01*
G01X3673Y10326D01*
G01X3605Y10305D01*
G01X3400Y10305D01*
G01X4209Y10440D02*
G01X4186Y10486D01*
G01X4140Y10532D01*
G01X4094Y10555D01*
G01X4005Y10555D01*
G01X3959Y10532D01*
G01X3913Y10486D01*
G01X3890Y10440D01*
G01X3867Y10373D01*
G01X3867Y10259D01*
G01X3890Y10190D01*
G01X3913Y10144D01*
G01X3959Y10100D01*
G01X4005Y10076D01*
G01X4094Y10076D01*
G01X4140Y10100D01*
G01X4186Y10144D01*
G01X4209Y10190D01*
G01X4517Y10555D02*
G01X4517Y10076D01*
G01X4359Y10555D02*
G01X4677Y10555D01*
G01X4827Y9917D02*
G01X5235Y9917D01*
G01X5727Y10440D02*
G01X5705Y10486D01*
G01X5659Y10532D01*
G01X5614Y10555D01*
G01X5522Y10555D01*
G01X5477Y10532D01*
G01X5431Y10486D01*
G01X5409Y10440D01*
G01X5385Y10373D01*
G01X5385Y10259D01*
G01X5409Y10190D01*
G01X5431Y10144D01*
G01X5477Y10100D01*
G01X5522Y10076D01*
G01X5614Y10076D01*
G01X5659Y10100D01*
G01X5705Y10144D01*
G01X5727Y10190D01*
G01X6035Y10555D02*
G01X6035Y10076D01*
G01X5877Y10555D02*
G01X6194Y10555D01*
G01X6344Y10555D02*
G01X6344Y10076D01*
G01X6344Y10555D02*
G01X6505Y10555D01*
G01X6572Y10532D01*
G01X6618Y10486D01*
G01X6640Y10440D01*
G01X6664Y10373D01*
G01X6664Y10259D01*
G01X6640Y10190D01*
G01X6618Y10144D01*
G01X6572Y10100D01*
G01X6505Y10076D01*
G01X6344Y10076D01*
G01X7164Y10394D02*
G01X7300Y10076D01*
G01X7435Y10394D02*
G01X7300Y10076D01*
G01X7585Y10463D02*
G01X7631Y10486D01*
G01X7700Y10555D01*
G01X7700Y10076D01*
G54D25*
G01X16400Y33050D02*
G01X12586Y33050D01*
G01X4859Y33050D02*
G01X1045Y33050D01*
G01X15800Y33200D02*
G01X16400Y33050D01*
G01X15800Y32900D01*
G01X1645Y33200D02*
G01X1045Y33050D01*
G01X1645Y32900D01*
G01X5150Y34059D02*
G01X5650Y34059D01*
G01X5377Y33694D01*
G01X5514Y33694D01*
G01X5605Y33650D01*
G01X5650Y33605D01*
G01X5696Y33467D01*
G01X5696Y33377D01*
G01X5650Y33240D01*
G01X5559Y33150D01*
G01X5422Y33105D01*
G01X5285Y33105D01*
G01X5150Y33150D01*
G01X5105Y33194D01*
G01X5059Y33286D01*
G01X6585Y33740D02*
G01X6540Y33605D01*
G01X6450Y33513D01*
G01X6314Y33467D01*
G01X6268Y33467D01*
G01X6131Y33513D01*
G01X6040Y33605D01*
G01X5996Y33740D01*
G01X5996Y33786D01*
G01X6040Y33923D01*
G01X6131Y34013D01*
G01X6268Y34059D01*
G01X6314Y34059D01*
G01X6450Y34013D01*
G01X6540Y33923D01*
G01X6585Y33740D01*
G01X6585Y33513D01*
G01X6540Y33286D01*
G01X6450Y33150D01*
G01X6314Y33105D01*
G01X6222Y33105D01*
G01X6085Y33150D01*
G01X6040Y33240D01*
G01X6931Y33332D02*
G01X6885Y33286D01*
G01X6931Y33240D01*
G01X6977Y33286D01*
G01X6931Y33332D01*
G01X7550Y34059D02*
G01X7414Y34013D01*
G01X7322Y33877D01*
G01X7277Y33650D01*
G01X7277Y33513D01*
G01X7322Y33286D01*
G01X7414Y33150D01*
G01X7550Y33105D01*
G01X7640Y33105D01*
G01X7777Y33150D01*
G01X7868Y33286D01*
G01X7914Y33513D01*
G01X7914Y33650D01*
G01X7868Y33877D01*
G01X7777Y34013D01*
G01X7640Y34059D01*
G01X7550Y34059D01*
G01X8485Y34059D02*
G01X8350Y34013D01*
G01X8259Y33877D01*
G01X8214Y33650D01*
G01X8214Y33513D01*
G01X8259Y33286D01*
G01X8350Y33150D01*
G01X8485Y33105D01*
G01X8577Y33105D01*
G01X8714Y33150D01*
G01X8805Y33286D01*
G01X8850Y33513D01*
G01X8850Y33650D01*
G01X8805Y33877D01*
G01X8714Y34013D01*
G01X8577Y34059D01*
G01X8485Y34059D01*
G01X9422Y34059D02*
G01X9285Y34013D01*
G01X9196Y33877D01*
G01X9150Y33650D01*
G01X9150Y33513D01*
G01X9196Y33286D01*
G01X9285Y33150D01*
G01X9422Y33105D01*
G01X9514Y33105D01*
G01X9650Y33150D01*
G01X9740Y33286D01*
G01X9785Y33513D01*
G01X9785Y33650D01*
G01X9740Y33877D01*
G01X9650Y34013D01*
G01X9514Y34059D01*
G01X9422Y34059D01*
G01X10085Y33740D02*
G01X10085Y33105D01*
G01X10085Y33559D02*
G01X10222Y33694D01*
G01X10314Y33740D01*
G01X10450Y33740D01*
G01X10540Y33694D01*
G01X10585Y33559D01*
G01X10585Y33105D01*
G01X10585Y33559D02*
G01X10722Y33694D01*
G01X10814Y33740D01*
G01X10950Y33740D01*
G01X11040Y33694D01*
G01X11085Y33559D01*
G01X11085Y33105D01*
G01X11385Y33740D02*
G01X11385Y33105D01*
G01X11385Y33559D02*
G01X11522Y33694D01*
G01X11614Y33740D01*
G01X11750Y33740D01*
G01X11840Y33694D01*
G01X11885Y33559D01*
G01X11885Y33105D01*
G01X11885Y33559D02*
G01X12022Y33694D01*
G01X12114Y33740D01*
G01X12250Y33740D01*
G01X12340Y33694D01*
G01X12385Y33559D01*
G01X12385Y33105D01*
G01X16400Y27494D02*
G01X16400Y34050D01*
G01X1045Y27400D02*
G01X1045Y34050D01*
G01X24950Y27350D02*
G01X24963Y20015D01*
G01X24977Y12243D02*
G01X24990Y4909D01*
G01X24801Y26749D02*
G01X24950Y27350D01*
G01X25101Y26750D01*
G01X24839Y5508D02*
G01X24990Y4909D01*
G01X25139Y5509D01*
G01X25973Y19272D02*
G01X25972Y19726D01*
G01X25563Y19771D01*
G01X25608Y19725D01*
G01X25655Y19589D01*
G01X25655Y19453D01*
G01X25609Y19316D01*
G01X25518Y19225D01*
G01X25382Y19180D01*
G01X25291Y19180D01*
G01X25155Y19224D01*
G01X25064Y19315D01*
G01X25018Y19452D01*
G01X25018Y19588D01*
G01X25063Y19724D01*
G01X25108Y19770D01*
G01X25199Y19816D01*
G01X25975Y18245D02*
G01X25019Y18697D01*
G01X25974Y18881D02*
G01X25975Y18245D01*
G01X25249Y17898D02*
G01X25203Y17944D01*
G01X25158Y17897D01*
G01X25203Y17853D01*
G01X25249Y17898D01*
G01X25977Y17281D02*
G01X25931Y17417D01*
G01X25794Y17508D01*
G01X25567Y17553D01*
G01X25430Y17553D01*
G01X25203Y17507D01*
G01X25068Y17415D01*
G01X25022Y17279D01*
G01X25022Y17188D01*
G01X25068Y17052D01*
G01X25204Y16962D01*
G01X25432Y16916D01*
G01X25569Y16916D01*
G01X25795Y16963D01*
G01X25931Y17054D01*
G01X25977Y17190D01*
G01X25977Y17281D01*
G01X25979Y16345D02*
G01X25932Y16481D01*
G01X25796Y16572D01*
G01X25569Y16616D01*
G01X25432Y16616D01*
G01X25205Y16571D01*
G01X25069Y16479D01*
G01X25024Y16343D01*
G01X25024Y16252D01*
G01X25070Y16115D01*
G01X25206Y16025D01*
G01X25433Y15980D01*
G01X25570Y15980D01*
G01X25797Y16026D01*
G01X25933Y16117D01*
G01X25979Y16254D01*
G01X25979Y16345D01*
G01X25980Y15408D02*
G01X25934Y15545D01*
G01X25798Y15635D01*
G01X25571Y15680D01*
G01X25434Y15680D01*
G01X25207Y15634D01*
G01X25071Y15543D01*
G01X25025Y15406D01*
G01X25025Y15315D01*
G01X25072Y15179D01*
G01X25208Y15089D01*
G01X25435Y15044D01*
G01X25572Y15044D01*
G01X25799Y15090D01*
G01X25935Y15181D01*
G01X25980Y15317D01*
G01X25980Y15408D01*
G01X25663Y14744D02*
G01X25026Y14743D01*
G01X25481Y14744D02*
G01X25618Y14607D01*
G01X25664Y14516D01*
G01X25664Y14380D01*
G01X25618Y14289D01*
G01X25482Y14244D01*
G01X25027Y14243D01*
G01X25482Y14244D02*
G01X25619Y14107D01*
G01X25665Y14016D01*
G01X25665Y13880D01*
G01X25619Y13789D01*
G01X25483Y13744D01*
G01X25028Y13743D01*
G01X25666Y13444D02*
G01X25029Y13443D01*
G01X25484Y13444D02*
G01X25620Y13307D01*
G01X25666Y13216D01*
G01X25666Y13080D01*
G01X25621Y12989D01*
G01X25485Y12944D01*
G01X25030Y12943D01*
G01X25485Y12944D02*
G01X25621Y12807D01*
G01X25667Y12716D01*
G01X25667Y12580D01*
G01X25622Y12489D01*
G01X25486Y12444D01*
G01X25031Y12443D01*
G01X18912Y27339D02*
G01X25950Y27351D01*
G01X18953Y4898D02*
G01X25990Y4910D01*
G01X27750Y27450D02*
G01X27750Y17859D01*
G01X27750Y10540D02*
G01X27750Y950D01*
G01X27600Y26850D02*
G01X27750Y27450D01*
G01X27900Y26850D01*
G01X27600Y1550D02*
G01X27750Y950D01*
G01X27900Y1550D01*
G01X26876Y11285D02*
G01X26785Y11240D01*
G01X26740Y11104D01*
G01X26740Y11013D01*
G01X26785Y10876D01*
G01X26922Y10785D01*
G01X27149Y10740D01*
G01X27376Y10740D01*
G01X27558Y10785D01*
G01X27649Y10876D01*
G01X27695Y11013D01*
G01X27695Y11058D01*
G01X27649Y11195D01*
G01X27558Y11285D01*
G01X27422Y11331D01*
G01X27376Y11331D01*
G01X27240Y11285D01*
G01X27149Y11195D01*
G01X27104Y11058D01*
G01X27104Y11013D01*
G01X27149Y10876D01*
G01X27240Y10785D01*
G01X27376Y10740D01*
G01X26740Y12267D02*
G01X27695Y11813D01*
G01X26740Y11631D02*
G01X26740Y12267D01*
G01X27467Y12613D02*
G01X27513Y12567D01*
G01X27558Y12613D01*
G01X27513Y12658D01*
G01X27467Y12613D01*
G01X26740Y13049D02*
G01X26740Y13549D01*
G01X27104Y13276D01*
G01X27104Y13413D01*
G01X27149Y13504D01*
G01X27195Y13549D01*
G01X27331Y13595D01*
G01X27422Y13595D01*
G01X27558Y13549D01*
G01X27649Y13458D01*
G01X27695Y13322D01*
G01X27695Y13185D01*
G01X27649Y13049D01*
G01X27604Y13004D01*
G01X27513Y12958D01*
G01X26922Y13895D02*
G01X26876Y13985D01*
G01X26740Y14122D01*
G01X27695Y14122D01*
G01X26740Y14695D02*
G01X26785Y14558D01*
G01X26922Y14467D01*
G01X27149Y14422D01*
G01X27285Y14422D01*
G01X27513Y14467D01*
G01X27649Y14558D01*
G01X27695Y14695D01*
G01X27695Y14785D01*
G01X27649Y14922D01*
G01X27513Y15013D01*
G01X27285Y15058D01*
G01X27149Y15058D01*
G01X26922Y15013D01*
G01X26785Y14922D01*
G01X26740Y14785D01*
G01X26740Y14695D01*
G01X27058Y15358D02*
G01X27695Y15358D01*
G01X27240Y15358D02*
G01X27104Y15495D01*
G01X27058Y15585D01*
G01X27058Y15722D01*
G01X27104Y15813D01*
G01X27240Y15858D01*
G01X27695Y15858D01*
G01X27240Y15858D02*
G01X27104Y15995D01*
G01X27058Y16085D01*
G01X27058Y16222D01*
G01X27104Y16313D01*
G01X27240Y16358D01*
G01X27695Y16358D01*
G01X27058Y16658D02*
G01X27695Y16658D01*
G01X27240Y16658D02*
G01X27104Y16795D01*
G01X27058Y16885D01*
G01X27058Y17022D01*
G01X27104Y17113D01*
G01X27240Y17158D01*
G01X27695Y17158D01*
G01X27240Y17158D02*
G01X27104Y17295D01*
G01X27058Y17385D01*
G01X27058Y17522D01*
G01X27104Y17613D01*
G01X27240Y17658D01*
G01X27695Y17658D01*
G01X16699Y27450D02*
G01X28750Y27450D01*
G01X16450Y950D02*
G01X28750Y950D01*
G01X50Y36380D02*
G01X6640Y36380D01*
G01X14459Y36380D02*
G01X21050Y36380D01*
G01X650Y36230D02*
G01X50Y36380D01*
G01X650Y36530D01*
G01X20450Y36230D02*
G01X21050Y36380D01*
G01X20450Y36530D01*
G01X7385Y37390D02*
G01X6931Y37390D01*
G01X6885Y36980D01*
G01X6931Y37026D01*
G01X7068Y37071D01*
G01X7205Y37071D01*
G01X7340Y37026D01*
G01X7431Y36934D01*
G01X7477Y36798D01*
G01X7477Y36707D01*
G01X7431Y36571D01*
G01X7340Y36480D01*
G01X7205Y36434D01*
G01X7068Y36434D01*
G01X6931Y36480D01*
G01X6885Y36526D01*
G01X6840Y36617D01*
G01X7868Y37390D02*
G01X8368Y37390D01*
G01X8094Y37026D01*
G01X8231Y37026D01*
G01X8322Y36980D01*
G01X8368Y36934D01*
G01X8414Y36798D01*
G01X8414Y36707D01*
G01X8368Y36571D01*
G01X8277Y36480D01*
G01X8140Y36434D01*
G01X8005Y36434D01*
G01X7868Y36480D01*
G01X7822Y36526D01*
G01X7777Y36617D01*
G01X8759Y36663D02*
G01X8714Y36617D01*
G01X8759Y36571D01*
G01X8805Y36617D01*
G01X8759Y36663D01*
G01X9194Y37390D02*
G01X9694Y37390D01*
G01X9422Y37026D01*
G01X9559Y37026D01*
G01X9650Y36980D01*
G01X9694Y36934D01*
G01X9740Y36798D01*
G01X9740Y36707D01*
G01X9694Y36571D01*
G01X9605Y36480D01*
G01X9468Y36434D01*
G01X9331Y36434D01*
G01X9194Y36480D01*
G01X9150Y36526D01*
G01X9105Y36617D01*
G01X10494Y37390D02*
G01X10040Y36754D01*
G01X10722Y36754D01*
G01X10494Y37390D02*
G01X10494Y36434D01*
G01X11294Y37390D02*
G01X11159Y37344D01*
G01X11068Y37207D01*
G01X11022Y36980D01*
G01X11022Y36844D01*
G01X11068Y36617D01*
G01X11159Y36480D01*
G01X11294Y36434D01*
G01X11385Y36434D01*
G01X11522Y36480D01*
G01X11614Y36617D01*
G01X11659Y36844D01*
G01X11659Y36980D01*
G01X11614Y37207D01*
G01X11522Y37344D01*
G01X11385Y37390D01*
G01X11294Y37390D01*
G01X11959Y37071D02*
G01X11959Y36434D01*
G01X11959Y36890D02*
G01X12094Y37026D01*
G01X12185Y37071D01*
G01X12322Y37071D01*
G01X12414Y37026D01*
G01X12459Y36890D01*
G01X12459Y36434D01*
G01X12459Y36890D02*
G01X12594Y37026D01*
G01X12685Y37071D01*
G01X12822Y37071D01*
G01X12914Y37026D01*
G01X12959Y36890D01*
G01X12959Y36434D01*
G01X13259Y37071D02*
G01X13259Y36434D01*
G01X13259Y36890D02*
G01X13394Y37026D01*
G01X13485Y37071D01*
G01X13622Y37071D01*
G01X13714Y37026D01*
G01X13759Y36890D01*
G01X13759Y36434D01*
G01X13759Y36890D02*
G01X13894Y37026D01*
G01X13985Y37071D01*
G01X14122Y37071D01*
G01X14214Y37026D01*
G01X14259Y36890D01*
G01X14259Y36434D01*
G01X50Y28450D02*
G01X50Y37380D01*
G01X21050Y28450D02*
G01X21050Y37380D01*
G54D11*
G01X12596Y23464D02*
G01X12882Y23035D01*
G01X12882Y23464D02*
G01X12596Y23035D01*
G01X13161Y23464D02*
G01X13161Y23035D01*
G01X13017Y23464D02*
G01X13304Y23464D01*
G01X13439Y23219D02*
G01X13807Y23219D01*
G01X13983Y23464D02*
G01X14208Y23464D01*
G01X14085Y23300D01*
G01X14146Y23300D01*
G01X14187Y23280D01*
G01X14208Y23260D01*
G01X14228Y23198D01*
G01X14228Y23157D01*
G01X14208Y23096D01*
G01X14167Y23055D01*
G01X14106Y23035D01*
G01X14044Y23035D01*
G01X13983Y23055D01*
G01X13962Y23075D01*
G01X13942Y23116D01*
G01X14486Y23464D02*
G01X14425Y23444D01*
G01X14384Y23382D01*
G01X14363Y23280D01*
G01X14363Y23219D01*
G01X14384Y23116D01*
G01X14425Y23055D01*
G01X14486Y23035D01*
G01X14527Y23035D01*
G01X14588Y23055D01*
G01X14629Y23116D01*
G01X14650Y23219D01*
G01X14650Y23280D01*
G01X14629Y23382D01*
G01X14588Y23444D01*
G01X14527Y23464D01*
G01X14486Y23464D01*
G01X9006Y15851D02*
G01X8985Y15892D01*
G01X8944Y15934D01*
G01X8905Y15953D01*
G01X8822Y15953D01*
G01X8781Y15934D01*
G01X8740Y15892D01*
G01X8719Y15851D01*
G01X8700Y15790D01*
G01X8700Y15688D01*
G01X8719Y15626D01*
G01X8740Y15586D01*
G01X8781Y15544D01*
G01X8822Y15525D01*
G01X8905Y15525D01*
G01X8944Y15544D01*
G01X8985Y15586D01*
G01X9006Y15626D01*
G01X9142Y15953D02*
G01X9142Y15525D01*
G01X9142Y15953D02*
G01X9285Y15953D01*
G01X9346Y15934D01*
G01X9386Y15892D01*
G01X9407Y15851D01*
G01X9427Y15790D01*
G01X9427Y15688D01*
G01X9407Y15626D01*
G01X9386Y15586D01*
G01X9346Y15544D01*
G01X9285Y15525D01*
G01X9142Y15525D01*
G01X9685Y15953D02*
G01X9644Y15934D01*
G01X9603Y15892D01*
G01X9584Y15851D01*
G01X9563Y15790D01*
G01X9563Y15688D01*
G01X9584Y15626D01*
G01X9603Y15586D01*
G01X9644Y15544D01*
G01X9685Y15525D01*
G01X9768Y15525D01*
G01X9809Y15544D01*
G01X9850Y15586D01*
G01X9869Y15626D01*
G01X9889Y15688D01*
G01X9889Y15790D01*
G01X9869Y15851D01*
G01X9850Y15892D01*
G01X9809Y15934D01*
G01X9768Y15953D01*
G01X9685Y15953D01*
G01X10025Y15953D02*
G01X10025Y15525D01*
G01X10025Y15953D02*
G01X10189Y15525D01*
G01X10352Y15953D02*
G01X10189Y15525D01*
G01X10352Y15953D02*
G01X10352Y15525D01*
G01X12250Y15953D02*
G01X12250Y15525D01*
G01X12250Y15953D02*
G01X12434Y15953D01*
G01X12494Y15934D01*
G01X12515Y15913D01*
G01X12535Y15871D01*
G01X12535Y15811D01*
G01X12515Y15769D01*
G01X12494Y15750D01*
G01X12434Y15728D01*
G01X12250Y15728D01*
G01X12671Y15953D02*
G01X12671Y15525D01*
G01X12957Y15953D02*
G01X12957Y15525D01*
G01X12671Y15750D02*
G01X12957Y15750D01*
G01X13093Y15953D02*
G01X13256Y15750D01*
G01X13256Y15525D01*
G01X13419Y15953D02*
G01X13256Y15750D01*
G01X15756Y15851D02*
G01X15735Y15892D01*
G01X15694Y15934D01*
G01X15655Y15953D01*
G01X15572Y15953D01*
G01X15531Y15934D01*
G01X15490Y15892D01*
G01X15469Y15851D01*
G01X15450Y15790D01*
G01X15450Y15688D01*
G01X15469Y15626D01*
G01X15490Y15586D01*
G01X15531Y15544D01*
G01X15572Y15525D01*
G01X15655Y15525D01*
G01X15694Y15544D01*
G01X15735Y15586D01*
G01X15756Y15626D01*
G01X15892Y15953D02*
G01X15892Y15525D01*
G01X16177Y15953D02*
G01X16177Y15525D01*
G01X15892Y15750D02*
G01X16177Y15750D01*
G01X16313Y15953D02*
G01X16313Y15525D01*
G01X16313Y15525D02*
G01X16559Y15525D01*
G01X1850Y17353D02*
G01X1850Y16925D01*
G01X2005Y17252D02*
G01X2005Y17271D01*
G01X2026Y17313D01*
G01X2046Y17334D01*
G01X2086Y17353D01*
G01X2169Y17353D01*
G01X2209Y17334D01*
G01X2230Y17313D01*
G01X2251Y17271D01*
G01X2251Y17230D01*
G01X2230Y17190D01*
G01X2190Y17128D01*
G01X1984Y16925D01*
G01X2271Y16925D01*
G01X2713Y17252D02*
G01X2692Y17292D01*
G01X2651Y17334D01*
G01X2611Y17353D01*
G01X2528Y17353D01*
G01X2488Y17334D01*
G01X2446Y17292D01*
G01X2426Y17252D01*
G01X2405Y17190D01*
G01X2405Y17088D01*
G01X2426Y17027D01*
G01X2446Y16986D01*
G01X2488Y16944D01*
G01X2528Y16925D01*
G01X2611Y16925D01*
G01X2651Y16944D01*
G01X2692Y16986D01*
G01X2713Y17027D01*
G01X2848Y16780D02*
G01X3215Y16780D01*
G01X3351Y17271D02*
G01X3392Y17292D01*
G01X3453Y17353D01*
G01X3453Y16925D01*
G01X5250Y17353D02*
G01X5250Y16925D01*
G01X5405Y17252D02*
G01X5405Y17271D01*
G01X5426Y17313D01*
G01X5446Y17334D01*
G01X5486Y17353D01*
G01X5568Y17353D01*
G01X5610Y17334D01*
G01X5630Y17313D01*
G01X5651Y17271D01*
G01X5651Y17230D01*
G01X5630Y17190D01*
G01X5589Y17128D01*
G01X5385Y16925D01*
G01X5671Y16925D01*
G01X6113Y17252D02*
G01X6093Y17292D01*
G01X6052Y17334D01*
G01X6010Y17353D01*
G01X5928Y17353D01*
G01X5888Y17334D01*
G01X5847Y17292D01*
G01X5827Y17252D01*
G01X5806Y17190D01*
G01X5806Y17088D01*
G01X5827Y17027D01*
G01X5847Y16986D01*
G01X5888Y16944D01*
G01X5928Y16925D01*
G01X6010Y16925D01*
G01X6052Y16944D01*
G01X6093Y16986D01*
G01X6113Y17027D01*
G01X6247Y16780D02*
G01X6615Y16780D01*
G01X6772Y17252D02*
G01X6772Y17271D01*
G01X6792Y17313D01*
G01X6813Y17334D01*
G01X6853Y17353D01*
G01X6935Y17353D01*
G01X6976Y17334D01*
G01X6997Y17313D01*
G01X7017Y17271D01*
G01X7017Y17230D01*
G01X6997Y17190D01*
G01X6956Y17128D01*
G01X6751Y16925D01*
G01X7038Y16925D01*
G01X10300Y17803D02*
G01X10300Y17496D01*
G01X10319Y17436D01*
G01X10360Y17394D01*
G01X10422Y17375D01*
G01X10464Y17375D01*
G01X10525Y17394D01*
G01X10565Y17436D01*
G01X10585Y17496D01*
G01X10585Y17803D01*
G01X10742Y17702D02*
G01X10742Y17721D01*
G01X10761Y17763D01*
G01X10782Y17784D01*
G01X10823Y17803D01*
G01X10905Y17803D01*
G01X10946Y17784D01*
G01X10967Y17763D01*
G01X10986Y17721D01*
G01X10986Y17680D01*
G01X10967Y17640D01*
G01X10926Y17578D01*
G01X10721Y17375D01*
G01X11007Y17375D01*
G01X3938Y25419D02*
G01X3923Y25452D01*
G01X3890Y25484D01*
G01X3859Y25500D01*
G01X3794Y25500D01*
G01X3763Y25484D01*
G01X3732Y25452D01*
G01X3715Y25419D01*
G01X3700Y25373D01*
G01X3700Y25292D01*
G01X3715Y25244D01*
G01X3732Y25213D01*
G01X3763Y25182D01*
G01X3794Y25165D01*
G01X3859Y25165D01*
G01X3890Y25182D01*
G01X3923Y25213D01*
G01X3938Y25244D01*
G01X3938Y25292D01*
G01X3859Y25292D02*
G01X3938Y25292D01*
G01X4044Y25500D02*
G01X4044Y25165D01*
G01X4044Y25500D02*
G01X4265Y25165D01*
G01X4265Y25500D02*
G01X4265Y25165D01*
G01X4371Y25500D02*
G01X4371Y25165D01*
G01X4371Y25500D02*
G01X4482Y25500D01*
G01X4530Y25484D01*
G01X4561Y25452D01*
G01X4578Y25419D01*
G01X4594Y25373D01*
G01X4594Y25292D01*
G01X4578Y25244D01*
G01X4561Y25213D01*
G01X4530Y25182D01*
G01X4482Y25165D01*
G01X4371Y25165D01*
G01X3938Y24420D02*
G01X3923Y24452D01*
G01X3890Y24484D01*
G01X3859Y24500D01*
G01X3794Y24500D01*
G01X3763Y24484D01*
G01X3732Y24452D01*
G01X3715Y24420D01*
G01X3700Y24373D01*
G01X3700Y24293D01*
G01X3715Y24245D01*
G01X3732Y24214D01*
G01X3763Y24182D01*
G01X3794Y24166D01*
G01X3859Y24166D01*
G01X3890Y24182D01*
G01X3923Y24214D01*
G01X3938Y24245D01*
G01X3938Y24293D01*
G01X3859Y24293D02*
G01X3938Y24293D01*
G01X4044Y24500D02*
G01X4044Y24166D01*
G01X4044Y24500D02*
G01X4265Y24166D01*
G01X4265Y24500D02*
G01X4265Y24166D01*
G01X4371Y24500D02*
G01X4371Y24166D01*
G01X4371Y24500D02*
G01X4482Y24500D01*
G01X4530Y24484D01*
G01X4561Y24452D01*
G01X4578Y24420D01*
G01X4594Y24373D01*
G01X4594Y24293D01*
G01X4578Y24245D01*
G01X4561Y24214D01*
G01X4530Y24182D01*
G01X4482Y24166D01*
G01X4371Y24166D01*
G01X3700Y23490D02*
G01X3700Y23157D01*
G01X3700Y23490D02*
G01X3826Y23157D01*
G01X3955Y23490D02*
G01X3826Y23157D01*
G01X3955Y23490D02*
G01X3955Y23157D01*
G01X4155Y23490D02*
G01X4123Y23475D01*
G01X4090Y23442D01*
G01X4075Y23411D01*
G01X4059Y23363D01*
G01X4059Y23284D01*
G01X4075Y23236D01*
G01X4090Y23205D01*
G01X4123Y23173D01*
G01X4155Y23157D01*
G01X4219Y23157D01*
G01X4250Y23173D01*
G01X4282Y23205D01*
G01X4298Y23236D01*
G01X4313Y23284D01*
G01X4313Y23363D01*
G01X4298Y23411D01*
G01X4282Y23442D01*
G01X4250Y23475D01*
G01X4219Y23490D01*
G01X4155Y23490D01*
G01X4642Y23442D02*
G01X4609Y23475D01*
G01X4561Y23490D01*
G01X4498Y23490D01*
G01X4451Y23475D01*
G01X4419Y23442D01*
G01X4419Y23411D01*
G01X4434Y23380D01*
G01X4451Y23363D01*
G01X4482Y23348D01*
G01X4578Y23315D01*
G01X4609Y23300D01*
G01X4626Y23284D01*
G01X4642Y23252D01*
G01X4642Y23205D01*
G01X4609Y23173D01*
G01X4561Y23157D01*
G01X4498Y23157D01*
G01X4451Y23173D01*
G01X4419Y23205D01*
G01X4747Y23490D02*
G01X4747Y23157D01*
G01X3923Y22442D02*
G01X3890Y22475D01*
G01X3842Y22490D01*
G01X3780Y22490D01*
G01X3732Y22475D01*
G01X3700Y22442D01*
G01X3700Y22411D01*
G01X3715Y22380D01*
G01X3732Y22363D01*
G01X3763Y22348D01*
G01X3859Y22315D01*
G01X3890Y22300D01*
G01X3907Y22284D01*
G01X3923Y22252D01*
G01X3923Y22205D01*
G01X3890Y22173D01*
G01X3842Y22157D01*
G01X3780Y22157D01*
G01X3732Y22173D01*
G01X3700Y22205D01*
G01X4265Y22411D02*
G01X4250Y22442D01*
G01X4219Y22475D01*
G01X4186Y22490D01*
G01X4123Y22490D01*
G01X4090Y22475D01*
G01X4059Y22442D01*
G01X4044Y22411D01*
G01X4028Y22363D01*
G01X4028Y22284D01*
G01X4044Y22236D01*
G01X4059Y22205D01*
G01X4090Y22173D01*
G01X4123Y22157D01*
G01X4186Y22157D01*
G01X4219Y22173D01*
G01X4250Y22205D01*
G01X4265Y22236D01*
G01X4371Y22490D02*
G01X4371Y22157D01*
G01X4371Y22157D02*
G01X4561Y22157D01*
G01X4667Y22490D02*
G01X4667Y22157D01*
G01X4889Y22490D02*
G01X4667Y22267D01*
G01X4747Y22348D02*
G01X4889Y22157D01*
G01X3938Y21411D02*
G01X3923Y21442D01*
G01X3890Y21475D01*
G01X3859Y21490D01*
G01X3794Y21490D01*
G01X3763Y21475D01*
G01X3732Y21442D01*
G01X3715Y21411D01*
G01X3700Y21363D01*
G01X3700Y21284D01*
G01X3715Y21236D01*
G01X3732Y21205D01*
G01X3763Y21173D01*
G01X3794Y21157D01*
G01X3859Y21157D01*
G01X3890Y21173D01*
G01X3923Y21205D01*
G01X3938Y21236D01*
G01X4265Y21442D02*
G01X4234Y21475D01*
G01X4186Y21490D01*
G01X4123Y21490D01*
G01X4075Y21475D01*
G01X4044Y21442D01*
G01X4044Y21411D01*
G01X4059Y21380D01*
G01X4075Y21363D01*
G01X4107Y21348D01*
G01X4203Y21315D01*
G01X4234Y21300D01*
G01X4250Y21284D01*
G01X4265Y21252D01*
G01X4265Y21205D01*
G01X4234Y21173D01*
G01X4186Y21157D01*
G01X4123Y21157D01*
G01X4075Y21173D01*
G01X4044Y21205D01*
G01X3700Y20500D02*
G01X3700Y20165D01*
G01X3805Y20500D02*
G01X3805Y20165D01*
G01X3805Y20500D02*
G01X4028Y20165D01*
G01X4028Y20500D02*
G01X4028Y20165D01*
G01X4244Y20500D02*
G01X4244Y20165D01*
G01X4132Y20500D02*
G01X4355Y20500D01*
G01X8639Y25411D02*
G01X8622Y25442D01*
G01X8590Y25475D01*
G01X8559Y25490D01*
G01X8494Y25490D01*
G01X8464Y25475D01*
G01X8431Y25442D01*
G01X8415Y25411D01*
G01X8400Y25363D01*
G01X8400Y25284D01*
G01X8415Y25236D01*
G01X8431Y25205D01*
G01X8464Y25173D01*
G01X8494Y25157D01*
G01X8559Y25157D01*
G01X8590Y25173D01*
G01X8622Y25205D01*
G01X8639Y25236D01*
G01X8639Y25284D01*
G01X8559Y25284D02*
G01X8639Y25284D01*
G01X8743Y25490D02*
G01X8743Y25157D01*
G01X8743Y25490D02*
G01X8965Y25157D01*
G01X8965Y25490D02*
G01X8965Y25157D01*
G01X9071Y25490D02*
G01X9071Y25157D01*
G01X9071Y25490D02*
G01X9182Y25490D01*
G01X9230Y25475D01*
G01X9261Y25442D01*
G01X9277Y25411D01*
G01X9293Y25363D01*
G01X9293Y25284D01*
G01X9277Y25236D01*
G01X9261Y25205D01*
G01X9230Y25173D01*
G01X9182Y25157D01*
G01X9071Y25157D01*
G01X8331Y24500D02*
G01X8506Y24500D01*
G01X8410Y24373D01*
G01X8459Y24373D01*
G01X8490Y24357D01*
G01X8506Y24341D01*
G01X8522Y24293D01*
G01X8522Y24261D01*
G01X8506Y24214D01*
G01X8475Y24182D01*
G01X8427Y24166D01*
G01X8380Y24166D01*
G01X8331Y24182D01*
G01X8315Y24198D01*
G01X8300Y24229D01*
G01X8643Y24245D02*
G01X8627Y24229D01*
G01X8643Y24214D01*
G01X8660Y24229D01*
G01X8643Y24245D01*
G01X8796Y24500D02*
G01X8971Y24500D01*
G01X8876Y24373D01*
G01X8923Y24373D01*
G01X8955Y24357D01*
G01X8971Y24341D01*
G01X8986Y24293D01*
G01X8986Y24261D01*
G01X8971Y24214D01*
G01X8939Y24182D01*
G01X8892Y24166D01*
G01X8843Y24166D01*
G01X8796Y24182D01*
G01X8780Y24198D01*
G01X8764Y24229D01*
G01X9092Y24500D02*
G01X9219Y24166D01*
G01X9347Y24500D02*
G01X9219Y24166D01*
G01X8331Y23491D02*
G01X8506Y23491D01*
G01X8410Y23364D01*
G01X8459Y23364D01*
G01X8490Y23348D01*
G01X8506Y23332D01*
G01X8522Y23284D01*
G01X8522Y23252D01*
G01X8506Y23205D01*
G01X8475Y23173D01*
G01X8427Y23157D01*
G01X8380Y23157D01*
G01X8331Y23173D01*
G01X8315Y23189D01*
G01X8300Y23220D01*
G01X8643Y23236D02*
G01X8627Y23220D01*
G01X8643Y23205D01*
G01X8660Y23220D01*
G01X8643Y23236D01*
G01X8796Y23491D02*
G01X8971Y23491D01*
G01X8876Y23364D01*
G01X8923Y23364D01*
G01X8955Y23348D01*
G01X8971Y23332D01*
G01X8986Y23284D01*
G01X8986Y23252D01*
G01X8971Y23205D01*
G01X8939Y23173D01*
G01X8892Y23157D01*
G01X8843Y23157D01*
G01X8796Y23173D01*
G01X8780Y23189D01*
G01X8764Y23220D01*
G01X9092Y23491D02*
G01X9219Y23157D01*
G01X9347Y23491D02*
G01X9219Y23157D01*
G01X8000Y22500D02*
G01X8000Y22166D01*
G01X8000Y22500D02*
G01X8143Y22500D01*
G01X8190Y22484D01*
G01X8206Y22468D01*
G01X8222Y22436D01*
G01X8222Y22389D01*
G01X8206Y22357D01*
G01X8190Y22341D01*
G01X8143Y22325D01*
G01X8000Y22325D01*
G01X8327Y22500D02*
G01X8406Y22166D01*
G01X8486Y22500D02*
G01X8406Y22166D01*
G01X8486Y22500D02*
G01X8565Y22166D01*
G01X8646Y22500D02*
G01X8565Y22166D01*
G01X8751Y22500D02*
G01X8751Y22166D01*
G01X8751Y22500D02*
G01X8861Y22500D01*
G01X8910Y22484D01*
G01X8942Y22452D01*
G01X8957Y22420D01*
G01X8973Y22373D01*
G01X8973Y22293D01*
G01X8957Y22245D01*
G01X8942Y22214D01*
G01X8910Y22182D01*
G01X8861Y22166D01*
G01X8751Y22166D01*
G01X9078Y22500D02*
G01X9078Y22166D01*
G01X9078Y22500D02*
G01X9301Y22166D01*
G01X9301Y22500D02*
G01X9301Y22166D01*
G01X8300Y21490D02*
G01X8300Y21157D01*
G01X8300Y21490D02*
G01X8443Y21490D01*
G01X8490Y21475D01*
G01X8506Y21459D01*
G01X8522Y21427D01*
G01X8522Y21394D01*
G01X8506Y21363D01*
G01X8490Y21348D01*
G01X8443Y21332D01*
G01X8300Y21332D01*
G01X8410Y21332D02*
G01X8522Y21157D01*
G01X8850Y21442D02*
G01X8818Y21475D01*
G01X8771Y21490D01*
G01X8706Y21490D01*
G01X8660Y21475D01*
G01X8627Y21442D01*
G01X8627Y21411D01*
G01X8643Y21380D01*
G01X8660Y21363D01*
G01X8690Y21348D01*
G01X8786Y21315D01*
G01X8818Y21300D01*
G01X8835Y21284D01*
G01X8850Y21252D01*
G01X8850Y21205D01*
G01X8818Y21173D01*
G01X8771Y21157D01*
G01X8706Y21157D01*
G01X8660Y21173D01*
G01X8627Y21205D01*
G01X9067Y21490D02*
G01X9067Y21157D01*
G01X8955Y21490D02*
G01X9177Y21490D01*
G01X8200Y20490D02*
G01X8200Y20157D01*
G01X8200Y20490D02*
G01X8327Y20157D01*
G01X8455Y20490D02*
G01X8327Y20157D01*
G01X8455Y20490D02*
G01X8455Y20157D01*
G01X8560Y20490D02*
G01X8560Y20157D01*
G01X8886Y20442D02*
G01X8855Y20475D01*
G01X8807Y20490D01*
G01X8743Y20490D01*
G01X8696Y20475D01*
G01X8664Y20442D01*
G01X8664Y20411D01*
G01X8680Y20380D01*
G01X8696Y20363D01*
G01X8727Y20348D01*
G01X8823Y20315D01*
G01X8855Y20300D01*
G01X8871Y20284D01*
G01X8886Y20252D01*
G01X8886Y20205D01*
G01X8855Y20173D01*
G01X8807Y20157D01*
G01X8743Y20157D01*
G01X8696Y20173D01*
G01X8664Y20205D01*
G01X9088Y20490D02*
G01X9056Y20475D01*
G01X9023Y20442D01*
G01X9007Y20411D01*
G01X8992Y20363D01*
G01X8992Y20284D01*
G01X9007Y20236D01*
G01X9023Y20205D01*
G01X9056Y20173D01*
G01X9088Y20157D01*
G01X9151Y20157D01*
G01X9182Y20173D01*
G01X9214Y20205D01*
G01X9231Y20236D01*
G01X9247Y20284D01*
G01X9247Y20363D01*
G01X9231Y20411D01*
G01X9214Y20442D01*
G01X9182Y20475D01*
G01X9151Y20490D01*
G01X9088Y20490D01*
G01X11250Y16703D02*
G01X11250Y16396D01*
G01X11269Y16336D01*
G01X11310Y16294D01*
G01X11372Y16275D01*
G01X11414Y16275D01*
G01X11475Y16294D01*
G01X11515Y16336D01*
G01X11535Y16396D01*
G01X11535Y16703D01*
G01X11671Y16621D02*
G01X11711Y16642D01*
G01X11773Y16703D01*
G01X11773Y16275D01*
G54D26*
G01X15600Y16419D02*
G01X15887Y16419D01*
G01X15887Y16419D02*
G01X15887Y16584D01*
G01X15600Y16673D02*
G01X15887Y16782D01*
G01X15600Y16892D02*
G01X15887Y16782D01*
G01X15655Y16982D02*
G01X15641Y17009D01*
G01X15600Y17050D01*
G01X15887Y17050D01*
G01X15620Y21409D02*
G01X15907Y21409D01*
G01X15907Y21409D02*
G01X15907Y21573D01*
G01X15620Y21663D02*
G01X15907Y21773D01*
G01X15620Y21882D02*
G01X15907Y21773D01*
G01X15620Y22107D02*
G01X15811Y21971D01*
G01X15811Y22176D01*
G01X15620Y22107D02*
G01X15907Y22107D01*
G01X15600Y17400D02*
G01X15887Y17400D01*
G01X15887Y17400D02*
G01X15887Y17563D01*
G01X15600Y17653D02*
G01X15887Y17763D01*
G01X15600Y17871D02*
G01X15887Y17763D01*
G01X15669Y17975D02*
G01X15655Y17975D01*
G01X15628Y17988D01*
G01X15614Y18003D01*
G01X15600Y18030D01*
G01X15600Y18084D01*
G01X15614Y18111D01*
G01X15628Y18125D01*
G01X15655Y18138D01*
G01X15682Y18138D01*
G01X15709Y18125D01*
G01X15750Y18098D01*
G01X15887Y17961D01*
G01X15887Y18153D01*
G01X15620Y20400D02*
G01X15907Y20400D01*
G01X15907Y20400D02*
G01X15907Y20563D01*
G01X15620Y20653D02*
G01X15907Y20763D01*
G01X15620Y20871D02*
G01X15907Y20763D01*
G01X15620Y20988D02*
G01X15620Y21138D01*
G01X15729Y21057D01*
G01X15729Y21098D01*
G01X15743Y21125D01*
G01X15757Y21138D01*
G01X15798Y21153D01*
G01X15825Y21153D01*
G01X15866Y21138D01*
G01X15893Y21111D01*
G01X15907Y21071D01*
G01X15907Y21030D01*
G01X15893Y20988D01*
G01X15879Y20975D01*
G01X15852Y20961D01*
G01X15610Y18530D02*
G01X15897Y18530D01*
G01X15897Y18530D02*
G01X15897Y18694D01*
G01X15610Y18784D02*
G01X15897Y18892D01*
G01X15610Y19002D02*
G01X15897Y18892D01*
G01X13056Y18530D02*
G01X13343Y18530D01*
G01X13056Y18721D02*
G01X13343Y18721D01*
G01X13193Y18530D02*
G01X13193Y18721D01*
G01X13056Y18811D02*
G01X13343Y18919D01*
G01X13056Y19028D02*
G01X13343Y18919D01*
G01X15689Y19605D02*
G01X15661Y19590D01*
G01X15634Y19563D01*
G01X15620Y19536D01*
G01X15620Y19482D01*
G01X15634Y19455D01*
G01X15661Y19427D01*
G01X15689Y19413D01*
G01X15729Y19400D01*
G01X15798Y19400D01*
G01X15839Y19413D01*
G01X15866Y19427D01*
G01X15893Y19455D01*
G01X15907Y19482D01*
G01X15907Y19536D01*
G01X15893Y19563D01*
G01X15866Y19590D01*
G01X15839Y19605D01*
G01X15798Y19605D01*
G01X15798Y19536D02*
G01X15798Y19605D01*
G01X15620Y19694D02*
G01X15907Y19694D01*
G01X15620Y19694D02*
G01X15907Y19884D01*
G01X15620Y19884D02*
G01X15907Y19884D01*
G01X15620Y19975D02*
G01X15907Y19975D01*
G01X15620Y19975D02*
G01X15620Y20071D01*
G01X15634Y20111D01*
G01X15661Y20138D01*
G01X15689Y20153D01*
G01X15729Y20165D01*
G01X15798Y20165D01*
G01X15839Y20153D01*
G01X15866Y20138D01*
G01X15893Y20111D01*
G01X15907Y20071D01*
G01X15907Y19975D01*
G01X13125Y19605D02*
G01X13097Y19590D01*
G01X13069Y19563D01*
G01X13056Y19536D01*
G01X13056Y19482D01*
G01X13069Y19455D01*
G01X13097Y19427D01*
G01X13125Y19413D01*
G01X13164Y19400D01*
G01X13234Y19400D01*
G01X13275Y19413D01*
G01X13302Y19427D01*
G01X13328Y19455D01*
G01X13343Y19482D01*
G01X13343Y19536D01*
G01X13328Y19563D01*
G01X13302Y19590D01*
G01X13275Y19605D01*
G01X13234Y19605D01*
G01X13234Y19536D02*
G01X13234Y19605D01*
G01X13056Y19694D02*
G01X13343Y19694D01*
G01X13056Y19694D02*
G01X13343Y19884D01*
G01X13056Y19884D02*
G01X13343Y19884D01*
G01X13056Y19975D02*
G01X13343Y19975D01*
G01X13056Y19975D02*
G01X13056Y20071D01*
G01X13069Y20111D01*
G01X13097Y20138D01*
G01X13125Y20153D01*
G01X13164Y20165D01*
G01X13234Y20165D01*
G01X13275Y20153D01*
G01X13302Y20138D01*
G01X13328Y20111D01*
G01X13343Y20071D01*
G01X13343Y19975D01*
G01X13056Y20430D02*
G01X13343Y20430D01*
G01X13056Y20621D02*
G01X13343Y20621D01*
G01X13193Y20430D02*
G01X13193Y20621D01*
G01X13056Y20711D02*
G01X13343Y20819D01*
G01X13056Y20928D02*
G01X13343Y20819D01*
G01X13056Y21046D02*
G01X13056Y21196D01*
G01X13164Y21115D01*
G01X13164Y21155D01*
G01X13178Y21182D01*
G01X13193Y21196D01*
G01X13234Y21209D01*
G01X13260Y21209D01*
G01X13302Y21196D01*
G01X13328Y21169D01*
G01X13343Y21128D01*
G01X13343Y21086D01*
G01X13328Y21046D01*
G01X13314Y21032D01*
G01X13288Y21019D01*
G01X13056Y17450D02*
G01X13343Y17450D01*
G01X13056Y17640D02*
G01X13343Y17640D01*
G01X13193Y17450D02*
G01X13193Y17640D01*
G01X13056Y17730D02*
G01X13343Y17840D01*
G01X13056Y17948D02*
G01X13343Y17840D01*
G01X13125Y18053D02*
G01X13110Y18053D01*
G01X13084Y18065D01*
G01X13069Y18080D01*
G01X13056Y18107D01*
G01X13056Y18161D01*
G01X13069Y18188D01*
G01X13084Y18203D01*
G01X13110Y18215D01*
G01X13138Y18215D01*
G01X13164Y18203D01*
G01X13206Y18175D01*
G01X13343Y18038D01*
G01X13343Y18230D01*
G01X13056Y21400D02*
G01X13343Y21400D01*
G01X13056Y21590D02*
G01X13343Y21590D01*
G01X13193Y21400D02*
G01X13193Y21590D01*
G01X13056Y21680D02*
G01X13343Y21790D01*
G01X13056Y21898D02*
G01X13343Y21790D01*
G01X13056Y22125D02*
G01X13247Y21988D01*
G01X13247Y22194D01*
G01X13056Y22125D02*
G01X13343Y22125D01*
G01X13065Y16400D02*
G01X13352Y16400D01*
G01X13065Y16590D02*
G01X13352Y16590D01*
G01X13202Y16400D02*
G01X13202Y16590D01*
G01X13065Y16680D02*
G01X13352Y16790D01*
G01X13065Y16898D02*
G01X13352Y16790D01*
G01X13121Y16988D02*
G01X13106Y17015D01*
G01X13065Y17057D01*
G01X13352Y17057D01*
G54D11*
G01X755Y9503D02*
G01X755Y9176D01*
G01X734Y9115D01*
G01X713Y9094D01*
G01X673Y9075D01*
G01X632Y9075D01*
G01X590Y9094D01*
G01X569Y9115D01*
G01X550Y9176D01*
G01X550Y9217D01*
G01X890Y9421D02*
G01X930Y9442D01*
G01X992Y9503D01*
G01X992Y9075D01*
G01X15396Y22950D02*
G01X15825Y22950D01*
G01X15396Y22950D02*
G01X15396Y23092D01*
G01X15415Y23155D01*
G01X15456Y23194D01*
G01X15497Y23215D01*
G01X15560Y23236D01*
G01X15661Y23236D01*
G01X15722Y23215D01*
G01X15764Y23194D01*
G01X15805Y23155D01*
G01X15825Y23092D01*
G01X15825Y22950D01*
G01X15477Y23371D02*
G01X15456Y23411D01*
G01X15396Y23473D01*
G01X15825Y23473D01*
G54D10*
G75*
G01X16750Y7850D02*
G03X16750Y7850I-250J0D01*
G01*
M00*
M02*
