G04 Layer: TopSolderMaskLayer*
G04 EasyEDA v6.4.5, 2020-09-15T20:10:03+02:00*
G04 89610be28746463fae7f6a063ad526cf,a876551235204336a4c6776009a4e884,10*
G04 Gerber Generator version 0.2*
G04 Scale: 100 percent, Rotated: No, Reflected: No *
G04 Dimensions in inches *
G04 leading zeros omitted , absolute positions ,2 integer and 4 decimal *
%FSLAX24Y24*%
%MOIN*%
G90*
G70D02*

%ADD27C,0.132000*%
%ADD30C,0.076897*%
%ADD32C,0.068000*%
%ADD33C,0.082000*%
%ADD34C,0.078000*%
%ADD35R,0.078000X0.078000*%

%LPD*%
G54D27*
G01X12650Y24680D02*
G01X12650Y24419D01*
G36*
G01X13989Y23759D02*
G01X13989Y25340D01*
G01X15310Y25340D01*
G01X15310Y23759D01*
G01X13989Y23759D01*
G37*
G36*
G01X8965Y10065D02*
G01X8965Y10834D01*
G01X9734Y10834D01*
G01X9734Y10065D01*
G01X8965Y10065D01*
G37*
G54D30*
G01X9350Y11434D03*
G01X9350Y12418D03*
G01X9350Y13402D03*
G01X9350Y14386D03*
G36*
G01X12265Y10065D02*
G01X12265Y10834D01*
G01X13034Y10834D01*
G01X13034Y10065D01*
G01X12265Y10065D01*
G37*
G01X12650Y11434D03*
G01X12650Y12418D03*
G01X12650Y13402D03*
G01X12650Y14386D03*
G36*
G01X15465Y10065D02*
G01X15465Y10834D01*
G01X16234Y10834D01*
G01X16234Y10065D01*
G01X15465Y10065D01*
G37*
G01X15850Y11434D03*
G01X15850Y12418D03*
G01X15850Y13402D03*
G01X15850Y14386D03*
G36*
G01X2065Y12290D02*
G01X2065Y13057D01*
G01X2834Y13057D01*
G01X2834Y12290D01*
G01X2065Y12290D01*
G37*
G01X2450Y13657D03*
G01X2450Y14642D03*
G01X2450Y15626D03*
G36*
G01X5565Y12290D02*
G01X5565Y13057D01*
G01X6334Y13057D01*
G01X6334Y12290D01*
G01X5565Y12290D01*
G37*
G01X5950Y13657D03*
G01X5950Y14642D03*
G01X5950Y15626D03*
G36*
G01X2159Y24959D02*
G01X2159Y25640D01*
G01X2840Y25640D01*
G01X2840Y24959D01*
G01X2159Y24959D01*
G37*
G54D32*
G01X2500Y24300D03*
G01X2500Y23300D03*
G01X2500Y22300D03*
G01X2500Y21300D03*
G01X2500Y20300D03*
G36*
G01X10160Y24959D02*
G01X10160Y25640D01*
G01X10839Y25640D01*
G01X10839Y24959D01*
G01X10160Y24959D01*
G37*
G01X10500Y24300D03*
G01X10500Y23300D03*
G01X10500Y22300D03*
G01X10500Y21300D03*
G01X10500Y20300D03*
G54D33*
G01X12510Y16780D03*
G01X12510Y17780D03*
G01X12510Y18780D03*
G01X12510Y19780D03*
G01X12510Y20780D03*
G01X12510Y21780D03*
G01X16510Y21780D03*
G01X16510Y20780D03*
G01X16510Y19780D03*
G01X16510Y18780D03*
G01X16510Y17780D03*
G01X16510Y16780D03*
G54D32*
G01X15950Y8350D03*
G01X14950Y8350D03*
G01X13950Y8350D03*
G01X12950Y8350D03*
G01X11950Y8350D03*
G01X10950Y8350D03*
G01X9950Y8350D03*
G01X8950Y8350D03*
G01X7950Y8350D03*
G01X6950Y8350D03*
G01X5950Y8350D03*
G01X4950Y8350D03*
G01X3950Y8350D03*
G01X2950Y8350D03*
G01X1950Y8350D03*
G01X1950Y2350D03*
G01X2950Y2350D03*
G01X3950Y2350D03*
G01X4950Y2350D03*
G01X5950Y2350D03*
G01X6950Y2350D03*
G01X7950Y2350D03*
G01X8950Y2350D03*
G01X9950Y2350D03*
G01X10950Y2350D03*
G01X11950Y2350D03*
G01X12950Y2350D03*
G01X13950Y2350D03*
G01X14950Y2350D03*
G01X15950Y2350D03*
G54D34*
G01X16550Y23025D03*
G54D35*
G01X16550Y26075D03*
M00*
M02*
