;Layer: Drill PTH
;EasyEDA v6.4.5, 2020-09-15T20:10:03+02:00
;89610be28746463fae7f6a063ad526cf,a876551235204336a4c6776009a4e884,10
;Gerber Generator version 0.2
M48
INCH,LZ,00.0000
;Holesize 1 = 0.012 INCH
T01C0.012
;Holesize 2 = 0.035 INCH
T02C0.035
;Holesize 3 = 0.036 INCH
T03C0.036
;Holesize 4 = 0.040 INCH
T04C0.040
;Holesize 5 = 0.040 INCH
T05C0.040
;Holesize 6 = 0.045 INCH
T06C0.045
%
G05
G90
T01
X+000950Y+020750
X+001050Y+007150
T02
X+009350Y+010450G85X+009350Y+010450
X+009350Y+011434G85X+009350Y+011434
X+009350Y+012418G85X+009350Y+012418
X+009350Y+013402G85X+009350Y+013402
X+009350Y+014387G85X+009350Y+014386
X+012650Y+010450G85X+012650Y+010450
X+012650Y+011434G85X+012650Y+011434
X+012650Y+012418G85X+012650Y+012418
X+012650Y+013402G85X+012650Y+013402
X+012650Y+014387G85X+012650Y+014386
X+015850Y+010450G85X+015850Y+010450
X+015850Y+011434G85X+015850Y+011434
X+015850Y+012418G85X+015850Y+012418
X+015850Y+013402G85X+015850Y+013402
X+015850Y+014387G85X+015850Y+014386
X+002450Y+012673G85X+002450Y+012673
X+002450Y+013657G85X+002450Y+013657
X+002450Y+014642G85X+002450Y+014641
X+002450Y+015626G85X+002450Y+015626
X+005950Y+012673G85X+005950Y+012673
X+005950Y+013657G85X+005950Y+013657
X+005950Y+014642G85X+005950Y+014641
X+005950Y+015626G85X+005950Y+015626
T03
X+002500Y+025300
X+002500Y+024300
X+002500Y+023300
X+002500Y+022300
X+002500Y+021300
X+002500Y+020300
X+010500Y+025300
X+010500Y+024300
X+010500Y+023300
X+010500Y+022300
X+010500Y+021300
X+010500Y+020300
X+015950Y+008350
X+014950Y+008350
X+013950Y+008350
X+012950Y+008350
X+011950Y+008350
X+010950Y+008350
X+009950Y+008350
X+008950Y+008350
X+007950Y+008350
X+006950Y+008350
X+005950Y+008350
X+004950Y+008350
X+003950Y+008350
X+002950Y+008350
X+001950Y+008350
X+001950Y+002350
X+002950Y+002350
X+003950Y+002350
X+004950Y+002350
X+005950Y+002350
X+006950Y+002350
X+007950Y+002350
X+008950Y+002350
X+009950Y+002350
X+010950Y+002350
X+011950Y+002350
X+012950Y+002350
X+013950Y+002350
X+014950Y+002350
X+015950Y+002350
T04
X+016550Y+023025
X+016550Y+026075
T05
X+012509Y+016780G85X+012510Y+016780
X+012509Y+017780G85X+012510Y+017780
X+012509Y+018780G85X+012510Y+018780
X+012509Y+019780G85X+012510Y+019780
X+012509Y+020780G85X+012510Y+020780
X+012509Y+021780G85X+012510Y+021780
X+016510Y+021780G85X+016509Y+021780
X+016510Y+020780G85X+016509Y+020780
X+016510Y+019780G85X+016509Y+019780
X+016510Y+018780G85X+016509Y+018780
X+016510Y+017780G85X+016509Y+017780
X+016510Y+016780G85X+016509Y+016780
T06
X+014650Y+024550
X+012650Y+024550
M30
